<?xml version="1.0" encoding="utf-8"?>
<!-- Generator: Adobe Illustrator 15.1.0, SVG Export Plug-In . SVG Version: 6.00 Build 0)  -->
<!DOCTYPE svg PUBLIC "-//W3C//DTD SVG 1.1//EN" "http://www.w3.org/Graphics/SVG/1.1/DTD/svg11.dtd">
<svg version="1.1" id="Layer_1" xmlns="http://www.w3.org/2000/svg" xmlns:xlink="http://www.w3.org/1999/xlink" x="0px" y="0px"
	 width="600px" height="120px" viewBox="0 0 600 120" enable-background="new 0 0 600 120" xml:space="preserve">
<g>
	<g>
		<g>
			<path fill="#FF0000" d="M174.783,40.11c-3.744-2.101-5.07-8.435-1.113-14.08c3.915-5.585,10.511-7.478,13.101-4.887
				c3.111,3.112,1.99,9.482-0.717,13.878C183.692,38.856,178.992,42.472,174.783,40.11z"/>
		</g>
		<g>
			<path fill="#FF0000" d="M140.322,77.352c5.359-17.281,24.585-32.854,29.652-32.863c5.066-0.008,7.688,5.055,1.281,15.488
				c0,0-3.499,5.524-12.398,14.827c0,0-8.967,7.639-5.125,14.96c2.519,3.908,8.024,6.78,17.156-0.101
				c4.085-3.076,11.898-9.565,11.898-9.565s0.428,4.956,0.271,7.588c-15.32,20.107-24.893,25.971-34.388,20.213
				C140.528,102.958,137.341,86.968,140.322,77.352z"/>
		</g>
	</g>
	<g>
		<g>
			<path fill="#000098" d="M17.322,68.215h33.862V44.552c0,0,3.334-4.38,6.956-0.078v56.615c0,0-2.783,4.232-7.139,0V75.353H24.544
				v25.736c0,0-0.782,1.941-2.255,1.902c-2.447-0.065-8.222,0.039-9.877,0c0.295,0.007-2.412-0.825-2.412-1.902
				c0-1.074,0-56.85,0-56.85s3.478-3.922,7.138-0.079L17.322,68.215z"/>
		</g>
		<g>
			<path fill="#000098" d="M62.715,44.396c0,0,3.661-3.922,7.139-0.078v23.712h17.571V44.082c0,0,3.295-3.19,7.322-0.079v24.212
				h10.249c0,0,1.465,0.181,1.465,1.463v31.411c0,0-2.929,3.661-7.138,0V75.353H77.625v25.736c0,0-0.365,1.902-2.196,1.902h-10.2
				c0,0-2.697-0.464-2.697-1.902L62.715,44.396z"/>
		</g>
		<g>
			<path fill="#000098" d="M113.366,80.006c0-14.938,10.515-39.436,36.542-43.904c6.941-1.192,14.601-0.511,21.453,5.957
				c0,0-2.423-1.268-9.65,3.978c-24.487-5.174-38.61,20.108-38.634,33.851c-0.013,7.081,3.972,18.691,16.015,18.697
				c0,0,1.601,5.299,4.593,9.128C135.665,110.186,113.366,105.638,113.366,80.006z"/>
		</g>
	</g>
</g>
<g>
	<path fill="#000098" d="M159.601,90.678c3.234,1.678,8.141-0.237,17.354-8.856c2.277-3.588,4.069-10.412,4.069-16.275
		c0-8.137-1.066-13.404-3.71-17.116c-0.359,8.259-3.231,11.85-5.953,15.439C171.36,74.881,167.144,83.498,159.601,90.678z"/>
</g>
<g>
	<path fill="#545554" d="M221.999,53.85c3.904,2.112,8.16,4.704,10.463,6.655l-1.344,1.887c-2.56-2.271-7.615-5.503-11.935-7.743
		v5.536h-2.432v-5.664c-3.072,3.264-7.647,6.08-11.807,7.551c-0.32-0.576-1.056-1.472-1.6-1.984
		c3.904-1.216,8.224-3.552,11.104-6.239h-10.496v-2.144h12.799v-3.328c-3.232,0.32-6.56,0.544-9.631,0.672
		c-0.064-0.576-0.352-1.472-0.608-2.016c7.199-0.384,15.679-1.184,20.318-2.399l1.792,1.855c-2.624,0.704-5.919,1.248-9.439,1.632
		v3.583h12.895v2.144H221.999z M208.624,61.081h19.199v12.479h-2.432v-1.057h-14.431v1.12h-2.336V61.081z M210.959,62.969v2.88
		h14.431v-2.88H210.959z M225.39,70.584v-3.008h-14.431v3.008H225.39z"/>
	<path fill="#545554" d="M240.496,58.585c-1.152-0.96-3.392-2.336-5.216-3.167l1.344-1.728c1.76,0.8,4.063,2.016,5.248,2.944
		L240.496,58.585z M242.255,63.129c-1.12,3.104-2.688,6.815-4.032,9.631l-2.144-1.375c1.28-2.369,3.04-6.271,4.352-9.632
		L242.255,63.129z M241.903,50.074c-1.056-1.024-3.136-2.464-4.832-3.36l1.408-1.632c1.664,0.8,3.808,2.144,4.896,3.136
		L241.903,50.074z M249.711,66.744v3.137c0,1.055,0.352,1.312,2.368,1.312h7.167c1.6,0,1.888-0.544,2.048-3.647
		c0.512,0.383,1.376,0.703,1.984,0.832c-0.32,3.807-0.992,4.799-3.904,4.799h-7.359c-3.392,0-4.384-0.64-4.384-3.295v-8.672
		c-1.152,1.504-2.432,2.816-3.68,3.744c-0.416-0.544-1.152-1.376-1.664-1.792c2.271-1.472,4.671-4.255,6.047-7.104h-5.696v-2.176
		h5.632V50.17h-4.288v-2.144h4.288v-3.584h2.304v3.584h6.176v-3.584h2.335v3.584h4.768v2.144h-4.768v3.711h5.664v2.176h-5.728
		c1.344,2.624,3.583,5.056,5.919,6.335c-0.575,0.416-1.344,1.248-1.695,1.856c-1.313-0.864-2.56-2.08-3.68-3.456v5.951H249.711z
		 M250.703,56.058c-0.48,1.216-1.152,2.432-1.92,3.552h9.888c-0.768-1.12-1.472-2.336-2.016-3.552H250.703z M257.614,61.433h-7.903
		v3.488h7.903V61.433z M250.575,53.882h6.176V50.17h-6.176V53.882z"/>
	<path fill="#545554" d="M280.751,51.098H270.8v5.151h-2.272v-6.847h12.224v-2.048h-10.848v-1.696h24.127v1.696h-10.976v2.048
		h12.447v6.847h-2.336v-5.151h-10.111v7.264h-2.304V51.098z M292.43,71.256c1.696,0,2.017-0.543,2.176-3.711
		c0.544,0.352,1.408,0.64,2.08,0.768c-0.352,3.871-1.056,4.863-4.096,4.863h-7.359c-3.552,0-4.575-0.64-4.575-3.199v-0.992h-7.072
		v1.664h-2.304V59.545h21.566v9.439h-9.887v0.992c0,1.088,0.384,1.279,2.367,1.279H292.43z M271.376,56.602
		c2.016-0.192,4.768-0.608,7.583-1.056l0.096,1.504c-2.464,0.512-4.896,1.024-6.976,1.408L271.376,56.602z M272.911,51.738
		c2.048,0.32,4.704,1.056,6.144,1.664l-0.703,1.472c-1.408-0.672-4.064-1.44-6.176-1.856L272.911,51.738z M273.583,61.273v2.176
		h7.072v-2.176H273.583z M280.655,67.256v-2.207h-7.072v2.207H280.655z M290.51,61.273h-7.551v2.176h7.551V61.273z M290.51,67.256
		v-2.207h-7.551v2.207H290.51z M291.854,58.554c-1.729-0.608-4.96-1.376-7.456-1.76l0.576-1.439c2.432,0.288,5.695,0.96,7.424,1.568
		L291.854,58.554z M291.886,52.922c-1.823,0.768-4.415,1.44-6.239,1.824l-0.832-1.248c1.824-0.384,4.512-1.376,6.048-1.92
		L291.886,52.922z"/>
	<path fill="#545554" d="M309.295,70.744c0,1.279-0.288,1.92-1.023,2.304c-0.832,0.384-2.08,0.416-4.192,0.416
		c-0.063-0.608-0.384-1.536-0.672-2.144c1.473,0.064,2.849,0.031,3.264,0.031c0.416,0,0.576-0.159,0.576-0.607v-9.375
		c-1.056,0.896-2.079,1.76-3.136,2.624l-0.928-1.856c-0.256,3.968-0.896,8.256-2.432,11.551c-0.32-0.447-1.184-1.184-1.632-1.407
		c2.016-4.512,2.176-10.815,2.176-15.422V45.563h7.999V70.744z M303.344,56.858c0,1.568-0.032,3.328-0.16,5.183
		c1.056-0.64,2.528-1.631,4.063-2.72v-3.616l-1.184,0.8c-0.576-0.928-1.728-2.496-2.72-3.616V56.858z M303.344,47.738v5.056
		l1.279-0.832c0.929,0.992,1.984,2.24,2.624,3.168v-7.392H303.344z M314.415,56.762c-0.769-1.664-2.368-4.16-4.096-6.399
		c1.312-1.888,2.688-4.32,3.392-5.856l2.08,0.544c-0.896,1.632-2.112,3.648-3.136,5.28c1.472,1.856,2.943,4.096,3.68,5.536
		L314.415,56.762z M320.238,56.186c-0.416,0.768-0.896,1.504-1.376,2.208h8.703v15.07h-2.207v-1.216h-11.84v1.344h-2.144V58.394
		h5.184c0.48-0.928,0.992-2.048,1.28-2.816l2.399,0.576c-0.832-1.6-2.368-3.808-4.063-5.792c1.312-1.888,2.72-4.128,3.487-5.6
		l2.048,0.512c-0.863,1.568-2.079,3.488-3.167,5.024c1.504,1.728,3.008,3.839,3.743,5.184l-1.92,0.928L320.238,56.186z
		 M325.358,60.377h-11.84v9.855h11.84V60.377z M323.311,69.432c-0.801-0.896-2.048-1.983-3.424-3.135
		c-1.408,1.184-2.944,2.304-4.544,3.199c-0.32-0.416-0.864-0.992-1.312-1.312c1.567-0.8,3.071-1.856,4.383-3.008
		c-1.184-0.896-2.432-1.792-3.615-2.527l1.312-1.248c1.152,0.768,2.433,1.6,3.648,2.527c1.023-1.023,1.855-2.048,2.495-3.071
		l1.729,0.896c-0.769,1.12-1.664,2.24-2.752,3.296c1.376,1.056,2.655,2.144,3.456,3.008L323.311,69.432z M326.542,56.41
		c-0.832-1.568-2.624-3.968-4.544-6.047c1.408-1.856,2.912-4.192,3.744-5.632l2.144,0.544c-0.96,1.536-2.304,3.488-3.424,5.024
		c1.536,1.696,3.2,3.839,4,5.151L326.542,56.41z"/>
	<path fill="#545554" d="M345.999,66.297c-1.664,3.903-5.151,6.207-13.567,7.327c-0.16-0.576-0.672-1.504-1.088-1.983
		c7.231-0.864,10.432-2.561,11.999-5.344H331.76v-2.048h12.447c0.128-0.576,0.256-1.184,0.384-1.824h2.496
		c-0.096,0.641-0.225,1.248-0.384,1.824h13.566v2.048H345.999z M336.976,62.937h-2.24V46.97h9.312
		c0.353-0.832,0.768-1.855,0.992-2.56l2.527,0.32c-0.352,0.8-0.735,1.536-1.088,2.24h11.199v13.983c0,0.992-0.191,1.503-0.8,1.855
		c-0.607,0.32-1.536,0.353-2.72,0.353c-0.128-0.544-0.512-1.344-0.768-1.824h1.632c0.256,0,0.352-0.096,0.352-0.352V48.922h-18.398
		V62.937z M345.039,61.497v-3.808c-1.664,1.632-3.968,3.136-5.92,4c-0.319-0.416-0.863-1.056-1.279-1.408
		c2.048-0.704,4.447-2.144,6.079-3.647h-5.472v-1.568h3.168c-0.224-0.704-0.64-1.632-1.12-2.336l1.472-0.48
		c0.513,0.736,1.057,1.728,1.216,2.432l-0.991,0.384h2.848v-3.264c-1.952,0.096-3.904,0.16-5.695,0.16
		c-0.064-0.416-0.257-0.992-0.448-1.376c4.512-0.096,10.144-0.416,13.183-0.928l1.12,1.344c-1.728,0.288-3.936,0.512-6.271,0.672
		v3.392h2.72l-0.896-0.384c0.447-0.8,1.088-1.984,1.407-2.784l1.601,0.544c-0.576,1.024-1.12,1.888-1.601,2.624h3.584v1.568h-6.655
		c2.239,1.056,5.088,2.56,6.655,3.52l-1.056,1.408c-1.313-0.864-3.647-2.176-5.76-3.232v3.167H345.039z M347.951,66.393
		c3.936,1.6,9.503,3.968,12.351,5.439l-1.152,1.888c-2.783-1.503-8.287-4.031-12.318-5.728L347.951,66.393z"/>
	<path fill="#545554" d="M375.535,62.105c-0.704-1.152-2.336-3.36-3.647-5.024v16.479h-2.336V57.946
		c-1.376,3.839-3.296,7.551-5.216,9.791c-0.288-0.704-0.864-1.632-1.28-2.208c2.4-2.688,4.864-7.615,6.08-12.03h-5.28v-2.272h5.696
		v-6.848h2.336v6.848h4.543v2.272h-4.543v0.736c1.056,0.992,4.447,4.896,5.215,5.824L375.535,62.105z M386.51,53.498
		c1.44,5.056,3.872,10.175,6.432,12.959c-0.575,0.416-1.407,1.215-1.823,1.855c-1.952-2.464-3.808-6.367-5.216-10.559v15.807h-2.336
		V57.85c-1.696,4.384-4.096,8.543-6.592,11.039c-0.319-0.641-0.96-1.536-1.407-2.08c3.039-2.976,6.016-8.191,7.487-13.311h-5.248
		v-2.272h5.76v-6.848h2.336v6.848h6.048v2.272H386.51z"/>
	<path fill="#545554" d="M418.51,69.465c1.729,0,4.192-0.16,5.313-0.353c0.096,0.64,0.256,1.728,0.384,2.304
		c-0.896,0.191-3.264,0.256-5.696,0.256h-14.175c-4.671,0-6.783-1.408-6.783-5.759V48.73h-1.504v-2.272h27.454v2.272h-7.615v11.967
		c0,1.12,0.191,1.504,0.96,1.504h4.096c0.607,0,1.535-0.064,1.983-0.16c0.064,0.608,0.16,1.632,0.256,2.176
		c-0.447,0.16-1.344,0.192-2.239,0.192h-4c-2.688,0-3.392-0.96-3.392-3.776V48.73h-5.12c-0.16,8.415-0.928,13.854-5.951,16.99
		c-0.288-0.576-0.992-1.439-1.536-1.824c4.512-2.72,5.023-7.519,5.184-15.166h-6.239v17.311c0,2.399,1.023,3.424,4.191,3.424H418.51
		z"/>
	<path fill="#545554" d="M452.718,71.032c1.313,0,1.504-0.608,1.632-4.704c0.544,0.448,1.568,0.832,2.24,0.992
		c-0.288,4.8-0.992,5.984-3.68,5.984h-5.023c-2.977,0-3.744-0.769-3.744-3.36v-7.199h-4.768c-0.768,5.503-2.784,9.087-10.495,10.942
		c-0.224-0.672-0.896-1.664-1.376-2.176c7.008-1.439,8.671-4.287,9.312-8.767h-4.96v-9.439h8.863v-3.52h-12.415v-2.208h12.415v-3.2
		h2.368v3.2h12.703v2.208h-12.703v3.52h9.215v9.439h-5.791v7.199c0,0.928,0.256,1.088,1.6,1.088H452.718z M434.127,60.569h15.775
		v-5.12h-15.775V60.569z"/>
	<path fill="#545554" d="M473.615,66.809c0.096,0.544,0.319,1.376,0.479,1.824c-4.863,2.688-5.6,3.168-5.983,3.615
		c-0.128-0.576-0.544-1.664-0.896-2.208c0.448-0.224,0.96-0.704,0.96-1.888v-4.928h-2.335c-0.385,4.544-1.313,8.16-4.832,10.336
		c-0.288-0.48-0.96-1.313-1.408-1.664c3.072-1.76,3.808-4.896,4.096-8.672h-2.208v-6.623h10.783v6.623h-2.048v5.344L473.615,66.809z
		 M473.295,55.002h-13.279V53.05h3.296c-0.32-0.928-0.8-2.048-1.184-2.912l1.92-0.48c0.512,1.056,1.088,2.4,1.472,3.392h2.72
		c0.416-1.088,0.864-2.496,1.12-3.488l2.144,0.512c-0.384,0.992-0.8,2.08-1.184,2.976h2.976V55.002z M473.167,48.762H460.56v-1.92
		h5.152c-0.257-0.704-0.608-1.472-0.896-2.112l2.08-0.416c0.416,0.768,0.832,1.728,1.151,2.528h5.12V48.762z M463.535,61.529h6.624
		v-3.264h-6.624V61.529z M485.678,71.385c0.32,0,0.672-0.033,0.832-0.16c0.192-0.064,0.353-0.289,0.448-0.672
		c0.096-0.449,0.096-1.44,0.128-2.721c0.448,0.353,1.184,0.736,1.76,0.928c-0.063,1.248-0.16,2.625-0.352,3.137
		c-0.192,0.479-0.513,0.832-0.992,1.023c-0.416,0.191-1.152,0.256-1.664,0.256h-1.824c-0.64,0-1.472-0.128-1.888-0.544
		c-0.512-0.352-0.704-0.864-0.704-2.655v-6.783h-1.983c-0.48,4.895-1.824,8.479-6.495,10.526c-0.257-0.512-0.864-1.312-1.345-1.696
		c4.224-1.695,5.344-4.734,5.728-8.83h-2.335v-6.592h11.519v6.592h-2.912V70.2c0,0.544,0.032,0.896,0.192,1.024
		c0.16,0.096,0.384,0.16,0.672,0.16H485.678z M487.95,54.874h-13.888v-1.952h3.04c-0.288-0.896-0.704-1.984-1.056-2.848l1.888-0.416
		c0.479,1.056,0.992,2.304,1.28,3.264h2.848c0.416-1.056,0.832-2.432,1.088-3.424l2.144,0.512c-0.416,0.96-0.832,2.016-1.216,2.912
		h3.872V54.874z M487.182,48.762h-12.799v-1.92h5.056c-0.224-0.704-0.544-1.44-0.832-2.08l2.08-0.416
		c0.384,0.736,0.8,1.696,1.088,2.496h5.407V48.762z M477.007,61.497h7.392v-3.2h-7.392V61.497z"/>
	<path fill="#545554" d="M514.926,69.4h-4.224c3.2,0.832,6.56,1.888,8.672,2.623l-1.952,1.408c-2.111-0.832-5.663-1.983-9.247-3.039
		l1.151-0.992h-7.104l1.408,0.863c-2.56,1.44-6.783,2.688-10.207,3.297c-0.288-0.416-0.928-1.152-1.376-1.601
		c3.04-0.479,6.783-1.536,8.959-2.56h-3.871v-7.839c-1.472,0.896-3.008,1.632-4.448,2.144c-0.319-0.512-0.991-1.313-1.439-1.728
		c2.783-0.801,5.855-2.336,7.967-4.128h-7.199v-1.76h8.128v-1.44h-4.416v-1.408h4.416v-1.408h-4.896V50.33h4.896v-1.408h2.239v1.408
		h7.296v-1.408h2.239v1.408h4.8v1.504h-4.8v1.408h4.448v1.408h-4.448v1.44h8.191v1.76h-6.847c2.016,1.632,4.863,3.04,7.551,3.743
		c-0.479,0.385-1.151,1.248-1.472,1.76c-1.472-0.447-3.008-1.184-4.416-2.048V69.4z M494.575,51.29h-2.207v-4.864h12.799
		c-0.256-0.576-0.576-1.152-0.864-1.632l2.336-0.64c0.416,0.672,0.896,1.536,1.216,2.271h11.903v4.864h-2.304v-2.976h-22.879V51.29z
		 M512.622,60.825h-13.278v1.472h13.278V60.825z M512.622,63.641h-13.278v1.504h13.278V63.641z M512.622,66.488h-13.278v1.536
		h13.278V66.488z M501.808,57.85c-0.513,0.544-1.089,1.088-1.664,1.6h12.19c-0.607-0.512-1.151-1.024-1.632-1.6H501.808z
		 M502.383,53.242h7.296v-1.408h-7.296V53.242z M502.383,56.09h7.296v-1.44h-7.296V56.09z"/>
	<path fill="#545554" d="M217.515,101.16h-2.405v-7.85h-8.63v7.85h-2.405V83.387h2.405v8.032h8.63v-8.032h2.405V101.16z"/>
	<path fill="#545554" d="M220.339,94.434c0-1.953,0.529-3.562,1.587-4.827c1.058-1.266,2.494-1.898,4.309-1.898
		c1.831,0,3.277,0.631,4.34,1.892c1.062,1.262,1.593,2.873,1.593,4.834v0.27c0,1.969-0.529,3.58-1.587,4.834
		c-1.058,1.253-2.499,1.879-4.321,1.879c-1.823,0-3.266-0.628-4.327-1.886c-1.063-1.257-1.593-2.866-1.593-4.827V94.434z
		 M222.744,94.703c0,1.399,0.295,2.555,0.885,3.467c0.59,0.911,1.467,1.367,2.631,1.367c1.147,0,2.018-0.456,2.612-1.367
		c0.594-0.912,0.891-2.067,0.891-3.467v-0.27c0-1.383-0.299-2.534-0.897-3.454c-0.599-0.92-1.476-1.38-2.631-1.38
		c-1.147,0-2.016,0.46-2.606,1.38c-0.59,0.92-0.885,2.071-0.885,3.454V94.703z"/>
	<path fill="#545554" d="M236.943,87.952l0.171,1.966c0.439-0.7,0.991-1.243,1.654-1.63c0.663-0.387,1.417-0.58,2.264-0.58
		c1.424,0,2.527,0.417,3.308,1.251c0.781,0.835,1.172,2.122,1.172,3.863v8.338h-2.405v-8.289c0-1.163-0.23-1.989-0.69-2.478
		c-0.459-0.488-1.162-0.732-2.105-0.732c-0.741,0-1.369,0.148-1.886,0.445c-0.517,0.298-0.926,0.714-1.227,1.251v9.803h-2.405
		V87.952H236.943z"/>
	<path fill="#545554" d="M248.159,94.801c0-2.125,0.454-3.838,1.361-5.14c0.907-1.302,2.174-1.953,3.802-1.953
		c0.838,0,1.575,0.169,2.209,0.507s1.167,0.824,1.599,1.459l0.293-1.722h1.917v13.281c0,1.692-0.493,2.992-1.477,3.9
		c-0.985,0.907-2.405,1.36-4.26,1.36c-0.635,0-1.32-0.087-2.057-0.262c-0.737-0.176-1.386-0.413-1.947-0.715l0.366-1.867
		c0.464,0.244,1.023,0.441,1.679,0.592c0.655,0.15,1.3,0.227,1.935,0.227c1.172,0,2.024-0.268,2.558-0.8
		c0.533-0.533,0.799-1.345,0.799-2.436v-1.501c-0.432,0.553-0.948,0.972-1.55,1.257c-0.603,0.285-1.298,0.427-2.087,0.427
		c-1.611,0-2.871-0.583-3.778-1.751c-0.908-1.168-1.361-2.704-1.361-4.608V94.801z M250.564,95.057c0,1.326,0.272,2.393,0.818,3.198
		c0.545,0.806,1.387,1.208,2.527,1.208c0.724,0,1.331-0.164,1.819-0.494c0.488-0.329,0.891-0.795,1.208-1.397v-6.079
		c-0.31-0.562-0.712-1.007-1.208-1.337c-0.497-0.329-1.095-0.494-1.794-0.494c-1.147,0-1.996,0.476-2.545,1.429
		c-0.549,0.951-0.824,2.188-0.824,3.711V95.057z"/>
	<path fill="#545554" d="M272.805,93.128h-1.563v8.032h-2.405V83.387h2.405v7.861h1.318l6.592-7.861h2.709l0.025,0.061l-7.203,8.411
		l7.715,9.241l-0.023,0.061h-2.918L272.805,93.128z"/>
	<path fill="#545554" d="M282.793,94.434c0-1.953,0.528-3.562,1.586-4.827c1.059-1.266,2.495-1.898,4.31-1.898
		c1.831,0,3.277,0.631,4.34,1.892c1.062,1.262,1.593,2.873,1.593,4.834v0.27c0,1.969-0.529,3.58-1.587,4.834
		c-1.058,1.253-2.498,1.879-4.321,1.879s-3.266-0.628-4.327-1.886c-1.063-1.257-1.593-2.866-1.593-4.827V94.434z M285.197,94.703
		c0,1.399,0.295,2.555,0.885,3.467c0.59,0.911,1.467,1.367,2.631,1.367c1.147,0,2.019-0.456,2.612-1.367
		c0.594-0.912,0.892-2.067,0.892-3.467v-0.27c0-1.383-0.3-2.534-0.897-3.454c-0.599-0.92-1.476-1.38-2.631-1.38
		c-1.147,0-2.017,0.46-2.606,1.38s-0.885,2.071-0.885,3.454V94.703z"/>
	<path fill="#545554" d="M299.396,87.952l0.17,1.966c0.439-0.7,0.991-1.243,1.654-1.63s1.418-0.58,2.265-0.58
		c1.424,0,2.526,0.417,3.308,1.251c0.781,0.835,1.172,2.122,1.172,3.863v8.338h-2.404v-8.289c0-1.163-0.23-1.989-0.689-2.478
		c-0.46-0.488-1.162-0.732-2.105-0.732c-0.741,0-1.37,0.148-1.887,0.445c-0.517,0.298-0.926,0.714-1.227,1.251v9.803h-2.404V87.952
		H299.396z"/>
	<path fill="#545554" d="M310.612,94.801c0-2.125,0.453-3.838,1.361-5.14c0.907-1.302,2.175-1.953,3.802-1.953
		c0.839,0,1.575,0.169,2.21,0.507s1.168,0.824,1.599,1.459l0.293-1.722h1.917v13.281c0,1.692-0.492,2.992-1.478,3.9
		c-0.984,0.907-2.404,1.36-4.26,1.36c-0.635,0-1.32-0.087-2.057-0.262c-0.737-0.176-1.386-0.413-1.947-0.715l0.366-1.867
		c0.464,0.244,1.023,0.441,1.679,0.592c0.654,0.15,1.3,0.227,1.935,0.227c1.172,0,2.024-0.268,2.558-0.8
		c0.532-0.533,0.799-1.345,0.799-2.436v-1.501c-0.431,0.553-0.947,0.972-1.55,1.257s-1.298,0.427-2.087,0.427
		c-1.611,0-2.871-0.583-3.778-1.751c-0.908-1.168-1.361-2.704-1.361-4.608V94.801z M313.018,95.057c0,1.326,0.272,2.393,0.817,3.198
		s1.388,1.208,2.526,1.208c0.725,0,1.331-0.164,1.819-0.494c0.488-0.329,0.892-0.795,1.208-1.397v-6.079
		c-0.309-0.562-0.712-1.007-1.208-1.337c-0.496-0.329-1.095-0.494-1.794-0.494c-1.148,0-1.996,0.476-2.546,1.429
		c-0.549,0.951-0.823,2.188-0.823,3.711V95.057z"/>
	<path fill="#545554" d="M344.866,93.86c0,2.173-0.674,3.976-2.021,5.407c-1.347,1.433-3.094,2.148-5.242,2.148
		c-2.076,0-3.763-0.716-5.061-2.148c-1.298-1.432-1.947-3.234-1.947-5.407v-3.161c0-2.165,0.649-3.968,1.947-5.408
		s2.984-2.16,5.061-2.16c2.148,0,3.896,0.718,5.242,2.154c1.347,1.436,2.021,3.24,2.021,5.414V93.86z M342.461,90.674
		c0-1.627-0.439-2.962-1.318-4.004c-0.879-1.041-2.059-1.563-3.539-1.563c-1.4,0-2.518,0.521-3.352,1.563
		c-0.834,1.042-1.251,2.377-1.251,4.004v3.187c0,1.644,0.417,2.986,1.251,4.028s1.951,1.563,3.352,1.563
		c1.488,0,2.671-0.519,3.546-1.557c0.874-1.037,1.312-2.382,1.312-4.034V90.674z"/>
	<path fill="#545554" d="M350.301,101.16h-2.404V82.117h2.404V101.16z"/>
	<path fill="#545554" d="M357.737,96.266l0.427,1.66h0.074l3.246-9.974h2.674l-5.555,15.234c-0.333,0.887-0.812,1.66-1.434,2.319
		c-0.623,0.659-1.463,0.988-2.521,0.988c-0.195,0-0.443-0.022-0.744-0.066c-0.301-0.045-0.533-0.088-0.695-0.129l0.244-1.892
		c-0.049-0.008,0.095,0,0.433,0.024s0.552,0.037,0.642,0.037c0.512,0,0.932-0.229,1.257-0.684c0.325-0.456,0.599-0.961,0.817-1.514
		l0.574-1.38l-4.907-12.939h2.686L357.737,96.266z"/>
	<path fill="#545554" d="M368.203,87.952l0.172,1.733c0.431-0.627,0.978-1.112,1.642-1.459c0.663-0.346,1.435-0.519,2.313-0.519
		s1.633,0.203,2.264,0.61s1.105,1.018,1.422,1.831c0.424-0.757,0.975-1.353,1.654-1.788s1.476-0.653,2.387-0.653
		c1.343,0,2.404,0.462,3.186,1.386s1.172,2.313,1.172,4.168v7.898h-2.404v-7.922c0-1.303-0.224-2.224-0.672-2.766
		c-0.447-0.541-1.114-0.812-2.002-0.812c-0.821,0-1.487,0.285-1.995,0.854c-0.509,0.569-0.808,1.29-0.897,2.16v0.098v8.387h-2.417
		v-7.922c0-1.237-0.23-2.143-0.689-2.717c-0.46-0.573-1.121-0.86-1.983-0.86c-0.732,0-1.335,0.15-1.807,0.452
		c-0.473,0.301-0.835,0.724-1.087,1.27v9.777h-2.405V87.952H368.203z"/>
	<path fill="#545554" d="M398.838,95.057c0,1.904-0.455,3.44-1.367,4.608c-0.911,1.168-2.168,1.751-3.771,1.751
		c-0.813,0-1.528-0.136-2.143-0.408s-1.137-0.682-1.568-1.227v6.457h-2.404V87.952h1.843l0.378,1.709
		c0.432-0.635,0.969-1.119,1.611-1.452c0.644-0.334,1.393-0.501,2.246-0.501c1.637,0,2.907,0.649,3.815,1.947
		c0.907,1.298,1.36,3.013,1.36,5.146V95.057z M396.434,94.801c0-1.498-0.295-2.729-0.885-3.693
		c-0.591-0.964-1.459-1.446-2.606-1.446c-0.691,0-1.282,0.157-1.771,0.47c-0.488,0.313-0.883,0.743-1.184,1.288v6.384
		c0.301,0.546,0.695,0.971,1.184,1.276c0.488,0.305,1.087,0.458,1.795,0.458c1.14,0,2.002-0.417,2.588-1.252
		c0.586-0.834,0.879-1.91,0.879-3.229V94.801z"/>
	<path fill="#545554" d="M404.002,84.57h-2.404v-2.453h2.404V84.57z M404.002,101.16h-2.404V87.952h2.404V101.16z"/>
	<path fill="#545554" d="M415.251,101.16c-0.081-0.398-0.145-0.751-0.189-1.056c-0.045-0.306-0.071-0.612-0.079-0.922
		c-0.447,0.635-1.031,1.166-1.752,1.593c-0.72,0.428-1.495,0.641-2.325,0.641c-1.375,0-2.423-0.352-3.144-1.056
		c-0.72-0.703-1.08-1.674-1.08-2.911c0-1.262,0.511-2.248,1.532-2.96c1.021-0.712,2.406-1.068,4.156-1.068h2.612v-1.306
		c0-0.773-0.236-1.386-0.708-1.838c-0.472-0.451-1.14-0.678-2.002-0.678c-0.781,0-1.412,0.195-1.892,0.586
		c-0.48,0.391-0.721,0.859-0.721,1.404l-2.283,0.024l-0.023-0.073c-0.058-0.96,0.392-1.839,1.349-2.637
		c0.956-0.798,2.19-1.196,3.704-1.196c1.498,0,2.702,0.381,3.613,1.142c0.912,0.761,1.367,1.857,1.367,3.289v6.36
		c0,0.472,0.025,0.928,0.074,1.367s0.138,0.871,0.268,1.294H415.251z M411.26,99.402c0.87,0,1.655-0.224,2.355-0.672
		c0.7-0.447,1.155-0.96,1.367-1.537v-2.148h-2.697c-0.969,0-1.744,0.244-2.326,0.732s-0.873,1.062-0.873,1.721
		c0,0.586,0.184,1.05,0.55,1.392S410.543,99.402,411.26,99.402z"/>
	<path fill="#545554" d="M419.914,94.801c0-2.125,0.453-3.838,1.361-5.14c0.907-1.302,2.179-1.953,3.814-1.953
		c0.773,0,1.459,0.143,2.057,0.427c0.599,0.285,1.109,0.7,1.532,1.246v-7.264h2.405v19.043h-1.844l-0.366-1.672
		c-0.432,0.635-0.964,1.114-1.599,1.439c-0.635,0.326-1.372,0.488-2.21,0.488c-1.611,0-2.873-0.583-3.784-1.751
		s-1.367-2.704-1.367-4.608V94.801z M422.318,95.057c0,1.335,0.273,2.403,0.818,3.204c0.545,0.802,1.392,1.202,2.539,1.202
		c0.716,0,1.318-0.162,1.807-0.488c0.488-0.325,0.887-0.781,1.196-1.367v-6.164c-0.31-0.545-0.71-0.979-1.202-1.3
		c-0.493-0.321-1.085-0.482-1.776-0.482c-1.155,0-2.008,0.476-2.558,1.429c-0.549,0.951-0.824,2.188-0.824,3.711V95.057z"/>
	<path fill="#545554" d="M442.986,84.57h-2.404v-2.453h2.404V84.57z M442.986,101.16h-2.404V87.952h2.404V101.16z"/>
	<path fill="#545554" d="M448.416,87.952l0.172,1.966c0.439-0.7,0.99-1.243,1.653-1.63s1.418-0.58,2.265-0.58
		c1.424,0,2.527,0.417,3.309,1.251c0.781,0.835,1.172,2.122,1.172,3.863v8.338h-2.405v-8.289c0-1.163-0.23-1.989-0.689-2.478
		c-0.46-0.488-1.162-0.732-2.106-0.732c-0.74,0-1.369,0.148-1.886,0.445c-0.517,0.298-0.926,0.714-1.227,1.251v9.803h-2.405V87.952
		H448.416z"/>
	<path fill="#545554" d="M469.181,101.16h-2.417V83.387h2.417V101.16z"/>
	<path fill="#545554" d="M474.846,87.952l0.172,1.966c0.439-0.7,0.99-1.243,1.653-1.63s1.418-0.58,2.265-0.58
		c1.424,0,2.527,0.417,3.309,1.251c0.781,0.835,1.172,2.122,1.172,3.863v8.338h-2.405v-8.289c0-1.163-0.23-1.989-0.689-2.478
		c-0.46-0.488-1.162-0.732-2.106-0.732c-0.74,0-1.369,0.148-1.886,0.445c-0.517,0.298-0.926,0.714-1.227,1.251v9.803h-2.405V87.952
		H474.846z"/>
	<path fill="#545554" d="M487.303,101.16V89.734h-2.063v-1.782h2.063v-1.673c0-1.407,0.368-2.496,1.105-3.265
		c0.736-0.77,1.764-1.153,3.082-1.153c0.276,0,0.556,0.021,0.836,0.066c0.281,0.045,0.592,0.108,0.934,0.189l-0.293,1.831
		c-0.146-0.032-0.323-0.062-0.53-0.085c-0.208-0.025-0.426-0.037-0.653-0.037c-0.7,0-1.221,0.209-1.563,0.629
		c-0.342,0.419-0.513,1.027-0.513,1.824v1.673h2.393v1.782h-2.393v11.426H487.303z"/>
	<path fill="#545554" d="M493.266,94.434c0-1.953,0.529-3.562,1.588-4.827c1.058-1.266,2.494-1.898,4.309-1.898
		c1.831,0,3.277,0.631,4.34,1.892c1.062,1.262,1.593,2.873,1.593,4.834v0.27c0,1.969-0.529,3.58-1.587,4.834
		c-1.058,1.253-2.498,1.879-4.321,1.879s-3.266-0.628-4.327-1.886c-1.063-1.257-1.594-2.866-1.594-4.827V94.434z M495.671,94.703
		c0,1.399,0.295,2.555,0.885,3.467c0.59,0.911,1.467,1.367,2.631,1.367c1.147,0,2.019-0.456,2.612-1.367
		c0.594-0.912,0.891-2.067,0.891-3.467v-0.27c0-1.383-0.299-2.534-0.896-3.454c-0.599-0.92-1.476-1.38-2.631-1.38
		c-1.147,0-2.017,0.46-2.606,1.38s-0.885,2.071-0.885,3.454V94.703z"/>
	<path fill="#545554" d="M513.971,90.076l-1.232-0.073c-0.635,0-1.17,0.15-1.605,0.452c-0.436,0.301-0.771,0.724-1.007,1.27v9.436
		h-2.405V87.952h2.148l0.232,1.929c0.374-0.684,0.836-1.217,1.386-1.6c0.549-0.382,1.182-0.573,1.897-0.573
		c0.18,0,0.351,0.015,0.514,0.043c0.162,0.028,0.297,0.059,0.402,0.091L513.971,90.076z"/>
	<path fill="#545554" d="M518.373,87.952l0.17,1.733c0.432-0.627,0.979-1.112,1.643-1.459c0.663-0.346,1.434-0.519,2.313-0.519
		s1.634,0.203,2.265,0.61s1.104,1.018,1.423,1.831c0.423-0.757,0.974-1.353,1.653-1.788s1.476-0.653,2.387-0.653
		c1.343,0,2.405,0.462,3.187,1.386s1.172,2.313,1.172,4.168v7.898h-2.405v-7.922c0-1.303-0.224-2.224-0.671-2.766
		c-0.448-0.541-1.115-0.812-2.002-0.812c-0.822,0-1.488,0.285-1.996,0.854c-0.509,0.569-0.808,1.29-0.897,2.16v0.098v8.387h-2.417
		v-7.922c0-1.237-0.23-2.143-0.689-2.717c-0.46-0.573-1.121-0.86-1.984-0.86c-0.732,0-1.334,0.15-1.807,0.452
		c-0.472,0.301-0.834,0.724-1.086,1.27v9.777h-2.404V87.952H518.373z"/>
	<path fill="#545554" d="M545.66,101.16c-0.081-0.398-0.145-0.751-0.189-1.056c-0.045-0.306-0.071-0.612-0.079-0.922
		c-0.447,0.635-1.031,1.166-1.752,1.593c-0.72,0.428-1.495,0.641-2.325,0.641c-1.375,0-2.423-0.352-3.144-1.056
		c-0.72-0.703-1.08-1.674-1.08-2.911c0-1.262,0.511-2.248,1.532-2.96c1.021-0.712,2.406-1.068,4.156-1.068h2.612v-1.306
		c0-0.773-0.236-1.386-0.708-1.838c-0.472-0.451-1.14-0.678-2.002-0.678c-0.781,0-1.412,0.195-1.893,0.586
		c-0.479,0.391-0.72,0.859-0.72,1.404l-2.282,0.024l-0.025-0.073c-0.057-0.96,0.393-1.839,1.35-2.637
		c0.956-0.798,2.191-1.196,3.705-1.196c1.497,0,2.701,0.381,3.613,1.142c0.911,0.761,1.367,1.857,1.367,3.289v6.36
		c0,0.472,0.023,0.928,0.072,1.367s0.139,0.871,0.27,1.294H545.66z M541.668,99.402c0.871,0,1.656-0.224,2.356-0.672
		c0.7-0.447,1.155-0.96,1.367-1.537v-2.148h-2.698c-0.968,0-1.743,0.244-2.325,0.732s-0.872,1.062-0.872,1.721
		c0,0.586,0.183,1.05,0.549,1.392S540.952,99.402,541.668,99.402z"/>
	<path fill="#545554" d="M554.1,84.766v3.187h2.502v1.782H554.1v8.02c0,0.619,0.128,1.055,0.384,1.307
		c0.257,0.252,0.597,0.379,1.02,0.379c0.139,0,0.293-0.019,0.464-0.056c0.171-0.036,0.313-0.075,0.428-0.116l0.329,1.648
		c-0.179,0.146-0.443,0.267-0.794,0.36c-0.35,0.093-0.695,0.14-1.037,0.14c-0.977,0-1.754-0.294-2.332-0.885
		c-0.577-0.59-0.866-1.516-0.866-2.777v-8.02h-2.1v-1.782h2.1v-3.187H554.1z"/>
	<path fill="#545554" d="M561.28,84.57h-2.405v-2.453h2.405V84.57z M561.28,101.16h-2.405V87.952h2.405V101.16z"/>
	<path fill="#545554" d="M569.828,99.537c0.74,0,1.387-0.246,1.94-0.739c0.554-0.492,0.83-1.097,0.83-1.813h2.173l0.037,0.073
		c0.032,1.14-0.456,2.15-1.465,3.033c-1.01,0.884-2.182,1.324-3.516,1.324c-1.855,0-3.288-0.63-4.297-1.892
		c-1.01-1.262-1.514-2.832-1.514-4.712V94.3c0-1.863,0.506-3.428,1.52-4.693c1.013-1.266,2.443-1.898,4.291-1.898
		c1.473,0,2.679,0.456,3.619,1.367c0.939,0.911,1.394,2.03,1.361,3.356l-0.025,0.074h-2.185c0-0.807-0.263-1.491-0.787-2.058
		c-0.525-0.565-1.187-0.849-1.983-0.849c-1.181,0-2.041,0.458-2.582,1.374c-0.542,0.915-0.813,2.024-0.813,3.326v0.513
		c0,1.326,0.267,2.445,0.8,3.357C567.767,99.081,568.631,99.537,569.828,99.537z"/>
	<path fill="#545554" d="M584.956,97.607c0-0.528-0.201-0.96-0.604-1.293c-0.402-0.334-1.166-0.627-2.289-0.879
		c-1.554-0.334-2.748-0.802-3.582-1.404c-0.835-0.603-1.252-1.408-1.252-2.417c0-1.074,0.458-1.994,1.374-2.759
		c0.915-0.765,2.102-1.147,3.558-1.147c1.498,0,2.711,0.407,3.639,1.221s1.371,1.762,1.33,2.845l-0.024,0.072h-2.295
		c0-0.569-0.25-1.086-0.751-1.55c-0.5-0.464-1.133-0.696-1.898-0.696c-0.846,0-1.479,0.191-1.897,0.574
		c-0.42,0.383-0.629,0.838-0.629,1.367c0,0.521,0.181,0.924,0.543,1.209c0.362,0.284,1.109,0.545,2.24,0.781
		c1.619,0.342,2.849,0.825,3.687,1.452s1.258,1.444,1.258,2.454c0,1.172-0.475,2.128-1.423,2.868s-2.187,1.11-3.717,1.11
		c-1.685,0-3.011-0.427-3.979-1.281s-1.428-1.852-1.379-2.99l0.023-0.074h2.295c0.041,0.855,0.358,1.479,0.953,1.874
		c0.594,0.396,1.289,0.593,2.087,0.593c0.854,0,1.523-0.182,2.008-0.544C584.714,98.632,584.956,98.17,584.956,97.607z"/>
</g>
</svg>
